<svg width="1920px" height="1565px" viewBox="0 0 1920 1565" version="1.1" xmlns="http://www.w3.org/2000/svg" xmlns:xlink="http://www.w3.org/1999/xlink">
    <g id="Page-1" stroke="none" stroke-width="1" fill="none" fill-rule="evenodd">
        <g id="Landing-page" transform="translate(0.000000, -2073.000000)" fill="#FFFBF8">
            <g id="bg" transform="translate(-210.353306, 588.000000)">
                <path d="M2472.85936,1485.57861 C2156.40925,1275.34287 1360.9912,1622.92564 1038.52692,1833.28087 C716.062635,2043.63609 655.895965,2303.57547 532.044536,2406.85032 C449.476916,2475.70022 312.059259,2558.98051 119.791565,2656.6912 C22.8714365,2949.37179 38.1500323,3107.0574 165.627352,3129.74802 C356.843332,3163.78396 557.293288,2913.10034 750.955809,2854.67958 C944.61833,2796.25881 1414.4284,2692.37531 1551.24062,2657.94368 C1688.05283,2623.51206 2228.99994,2276.1523 2187.83538,2039.31733 C2146.67081,1802.48235 2789.30947,1695.81436 2472.85936,1485.57861 Z" id="Path-3" transform="translate(1308.892237, 2276.661414) rotate(4.000000) translate(-1308.892237, -2276.661414) "></path>
            </g>
        </g>
    </g>
</svg>